<svg width="24" height="24" viewBox="0 0 24 24" fill="none" xmlns="http://www.w3.org/2000/svg">
<path d="M10.3065 7.21986C10.9486 5.61918 11.2696 4.81883 11.7912 4.70791C11.9283 4.67874 12.0701 4.67874 12.2072 4.70791C12.7288 4.81883 13.0499 5.61918 13.6919 7.21986C14.0571 8.13014 14.2396 8.58528 14.5812 8.89485C14.6771 8.98168 14.7811 9.05901 14.8918 9.12576C15.2867 9.36374 15.7796 9.40788 16.7653 9.49617C18.4341 9.64562 19.2685 9.72034 19.5233 10.1961C19.5761 10.2946 19.6119 10.4013 19.6294 10.5117C19.7139 11.0447 19.1005 11.6028 17.8737 12.7189L17.533 13.0288C16.9595 13.5506 16.6727 13.8115 16.5069 14.1372C16.4074 14.3325 16.3406 14.5428 16.3094 14.7598C16.2573 15.1215 16.3412 15.5 16.5092 16.2569L16.5692 16.5274C16.8704 17.8849 17.021 18.5637 16.833 18.8973C16.6641 19.197 16.3531 19.3889 16.0095 19.4053C15.627 19.4236 15.088 18.9844 14.01 18.106C13.2998 17.5273 12.9447 17.2379 12.5505 17.1249C12.1902 17.0216 11.8082 17.0216 11.448 17.1249C11.0538 17.2379 10.6986 17.5273 9.98844 18.106C8.91046 18.9844 8.37147 19.4236 7.98895 19.4053C7.64535 19.3889 7.33431 19.197 7.16544 18.8973C6.97745 18.5637 7.12805 17.8849 7.42924 16.5274L7.48925 16.2569C7.6572 15.5 7.74118 15.1215 7.68907 14.7598C7.65781 14.5428 7.59109 14.3325 7.49159 14.1372C7.32572 13.8115 7.03894 13.5506 6.4654 13.0288L6.12473 12.7189C4.89794 11.6028 4.28454 11.0447 4.36902 10.5117C4.38651 10.4013 4.42239 10.2946 4.47516 10.1961C4.72996 9.72034 5.56434 9.64562 7.2331 9.49617C8.21889 9.40788 8.71178 9.36374 9.10662 9.12576C9.21737 9.05901 9.32138 8.98168 9.4172 8.89485C9.75881 8.58528 9.94138 8.13014 10.3065 7.21986Z" fill="#503F15" stroke="#503F15" stroke-width="2"/>
</svg>
