<svg width="40" height="40" viewBox="0 0 40 40" fill="none" xmlns="http://www.w3.org/2000/svg">
<g clip-path="url(#clip0_61_7)">
<path d="M20 40C31.0457 40 40 31.0457 40 20C40 8.9543 31.0457 0 20 0C8.9543 0 0 8.9543 0 20C0 31.0457 8.9543 40 20 40Z" fill="#FCF2CC"/>
<path d="M20 11.5C14.615 11.5 10.25 14.943 10.25 19.19C10.25 21.935 12.075 24.345 14.82 25.705C14.67 26.22 13.86 29.02 13.828 29.24C13.828 29.24 13.808 29.405 13.916 29.468C14.023 29.531 14.148 29.482 14.148 29.482C14.455 29.439 17.706 27.155 18.268 26.759C18.83 26.839 19.409 26.879 20 26.879C25.385 26.879 29.75 23.437 29.75 19.189C29.75 14.943 25.385 11.5 20 11.5Z" fill="#503F15"/>
<path d="M14.841 21.8709C14.6953 21.8741 14.5543 21.8194 14.4489 21.7187C14.3435 21.618 14.2824 21.4796 14.279 21.3339V17.9919H13.4C13.261 17.9816 13.1311 17.9192 13.0362 17.8171C12.9414 17.715 12.8887 17.5808 12.8887 17.4414C12.8887 17.302 12.9414 17.1678 13.0362 17.0657C13.1311 16.9636 13.261 16.9012 13.4 16.8909H16.28C16.419 16.9012 16.5489 16.9636 16.6438 17.0657C16.7386 17.1678 16.7913 17.302 16.7913 17.4414C16.7913 17.5808 16.7386 17.715 16.6438 17.8171C16.5489 17.9192 16.419 17.9816 16.28 17.9919H15.403V21.3339C15.4013 21.4061 15.3854 21.4773 15.3562 21.5434C15.327 21.6095 15.285 21.6692 15.2328 21.719C15.1805 21.7689 15.1189 21.808 15.0515 21.834C14.9841 21.8601 14.9132 21.8726 14.841 21.8709ZM19.773 21.8639C19.539 21.8639 19.359 21.7679 19.305 21.6149L19.027 20.8859H17.312L17.032 21.6159C16.979 21.7689 16.8 21.8639 16.565 21.8639C16.4415 21.8639 16.3194 21.8373 16.207 21.7859C16.052 21.7149 15.903 21.5179 16.074 20.9869L17.42 17.4459C17.514 17.1759 17.802 16.8989 18.169 16.8909C18.536 16.8989 18.824 17.1769 18.919 17.4469L20.264 20.9869C20.435 21.5179 20.286 21.7149 20.131 21.7869C20.0186 21.8379 19.8965 21.8642 19.773 21.8639ZM18.731 19.8899L18.169 18.2939L17.607 19.8899H18.731ZM21.169 21.7899C21.0997 21.7914 21.0307 21.7791 20.9661 21.7539C20.9015 21.7287 20.8425 21.6911 20.7924 21.6431C20.7423 21.595 20.7022 21.5376 20.6744 21.4741C20.6465 21.4106 20.6314 21.3422 20.63 21.2729V17.4529C20.6321 17.3024 20.6936 17.1589 20.8012 17.0536C20.9087 16.9483 21.0535 16.8898 21.204 16.8909C21.3547 16.8896 21.4997 16.9479 21.6075 17.0532C21.7152 17.1585 21.7769 17.3022 21.779 17.4529V20.7579H22.974C23.271 20.7579 23.513 20.9889 23.513 21.2729C23.5114 21.3422 23.4962 21.4106 23.4683 21.4741C23.4403 21.5375 23.4001 21.5948 23.3499 21.6428C23.2998 21.6907 23.2407 21.7283 23.176 21.7533C23.1113 21.7784 23.0423 21.7905 22.973 21.7889H21.17L21.169 21.7899ZM24.294 21.8639C24.1449 21.8636 24.0019 21.8042 23.8966 21.6986C23.7912 21.5931 23.732 21.45 23.732 21.3009V17.4529C23.7381 17.3078 23.8001 17.1707 23.9049 17.0702C24.0097 16.9697 24.1493 16.9136 24.2945 16.9136C24.4397 16.9136 24.5793 16.9697 24.6841 17.0702C24.7889 17.1707 24.8509 17.3078 24.857 17.4529V18.6629L26.427 17.0929C26.4681 17.0526 26.5167 17.0208 26.57 16.9994C26.6234 16.9779 26.6805 16.9672 26.738 16.9679C26.878 16.9679 27.02 17.0279 27.125 17.1339C27.222 17.2283 27.281 17.3549 27.291 17.4899C27.2961 17.5527 27.2875 17.6158 27.2659 17.675C27.2444 17.7342 27.2103 17.7881 27.166 17.8329L25.885 19.1149L27.269 20.9489C27.3367 21.0374 27.3764 21.1441 27.3828 21.2554C27.3892 21.3666 27.3621 21.4772 27.305 21.5729C27.2332 21.6961 27.1171 21.7874 26.9803 21.828C26.8436 21.8687 26.6965 21.8558 26.569 21.7919C26.4909 21.7528 26.4231 21.696 26.371 21.6259L25.052 19.8779L24.857 20.0739V21.2999C24.857 21.4492 24.7977 21.5924 24.6921 21.698C24.5865 21.8036 24.4433 21.8639 24.294 21.8639Z" fill="#FCF2CC"/>
</g>
<defs>
<clipPath id="clip0_61_7">
<rect width="40" height="40" fill="white"/>
</clipPath>
</defs>
</svg>
