<svg width="30" height="27" viewBox="0 0 30 27" fill="none" xmlns="http://www.w3.org/2000/svg">
<path d="M8.80553 0.567077C4.7261 4.89938 1.09782 9.94939 0.201868 16.0629C-0.261993 19.2077 -0.357307 28.1855 4.86589 26.6979C8.98981 25.5235 11.6014 20.1734 8.76741 16.5001C7.72531 15.1495 5.83809 14.1904 4.19234 14.8298C5.36788 10.2626 8.27177 6.5501 11.4108 3.2291C13.0565 1.49356 10.464 -1.17498 8.80553 0.567077Z" fill="#BBB49E"/>
<path d="M22.5687 16.6305C22.6004 16.3891 22.6322 16.1673 22.664 15.978C23.2702 11.9288 24.8831 8.10854 27.3471 4.8863C28.7831 2.99418 26.2033 0.319107 24.7482 2.22428C22.167 5.51334 20.3425 9.3584 19.4106 13.4726C18.7053 16.7349 17.8602 22.0263 19.4869 25.1255C22.2573 30.4104 33.3963 23.4095 28.9738 17.8441C28.2314 16.8781 27.1723 16.2223 25.9938 15.999C24.8153 15.7757 23.5979 16.0002 22.5687 16.6305Z" fill="#BBB49E"/>
</svg>
