<svg width="47" height="47" viewBox="0 0 47 47" fill="none" xmlns="http://www.w3.org/2000/svg">
<circle cx="19.5832" cy="15.6667" r="9.79167" fill="#503F15" fill-opacity="0.39"/>
<path d="M37.2085 19.5833L37.2085 31.3333" stroke="#503F15" stroke-opacity="0.39" stroke-width="2" stroke-linecap="round"/>
<path d="M43.0835 25.4583L31.3335 25.4583" stroke="#503F15" stroke-opacity="0.39" stroke-width="2" stroke-linecap="round"/>
<path d="M34.1886 39.7757C34.7597 39.6464 35.101 39.0544 34.8751 38.5143C33.8321 36.0206 31.9539 33.8272 29.4569 32.2078C26.6243 30.3707 23.1536 29.375 19.5832 29.375C16.0127 29.375 12.5421 30.3707 9.70947 32.2078C7.21247 33.8272 5.33429 36.0205 4.29127 38.5143C4.06535 39.0544 4.40665 39.6464 4.97769 39.7757L10.7482 41.0825C16.5645 42.3997 22.6018 42.3997 28.4181 41.0825L34.1886 39.7757Z" fill="#503F15" fill-opacity="0.39"/>
</svg>
