<svg width="20" height="20" viewBox="0 0 20 18" fill="none" xmlns="http://www.w3.org/2000/svg">
<path fill-rule="evenodd" clip-rule="evenodd" d="M2.521 7.06051C2.86148 5.78865 3.53079 4.62883 4.46163 3.69765C5.39247 2.76647 6.55205 2.09675 7.82379 1.75581C9.09553 1.41487 10.4346 1.41472 11.7064 1.75539C12.9782 2.09606 14.138 2.76553 15.069 3.69651L16.972 5.59951H13.789C13.5901 5.59951 13.3993 5.67853 13.2587 5.81918C13.118 5.95983 13.039 6.1506 13.039 6.34951C13.039 6.54842 13.118 6.73919 13.2587 6.87984C13.3993 7.02049 13.5901 7.09951 13.789 7.09951H18.781C18.9799 7.09951 19.1707 7.02049 19.3113 6.87984C19.452 6.73919 19.531 6.54842 19.531 6.34951V1.35751C19.531 1.1586 19.452 0.967832 19.3113 0.82718C19.1707 0.686527 18.9799 0.60751 18.781 0.60751C18.5821 0.60751 18.3913 0.686527 18.2507 0.82718C18.11 0.967832 18.031 1.1586 18.031 1.35751V4.53751L16.131 2.63751C15.014 1.51996 13.6224 0.716194 12.0962 0.307012C10.57 -0.102169 8.96303 -0.10234 7.43676 0.306516C5.91049 0.715373 4.51876 1.51885 3.40149 2.63616C2.28422 3.75346 1.4808 5.14522 1.072 6.67151C1.04652 6.76672 1.04005 6.86601 1.05295 6.96372C1.06584 7.06143 1.09786 7.15565 1.14717 7.24098C1.19648 7.32632 1.26211 7.40111 1.34032 7.46108C1.41853 7.52105 1.50779 7.56503 1.603 7.59051C1.69821 7.61599 1.7975 7.62246 1.89521 7.60956C1.99292 7.59667 2.08714 7.56465 2.17247 7.51534C2.25781 7.46603 2.3326 7.4004 2.39257 7.32219C2.45254 7.24398 2.49652 7.15472 2.522 7.05951L2.521 7.06051ZM17.929 10.4125C17.8339 10.3869 17.7346 10.3804 17.6369 10.3932C17.5392 10.406 17.445 10.4379 17.3597 10.4871C17.2744 10.5363 17.1996 10.6019 17.1395 10.68C17.0795 10.7582 17.0355 10.8474 17.01 10.9425C16.6695 12.2144 16.0002 13.3742 15.0694 14.3054C14.1385 15.2365 12.979 15.9063 11.7072 16.2472C10.4355 16.5882 9.09639 16.5883 7.82458 16.2476C6.55276 15.907 5.39304 15.2375 4.462 14.3065L2.56 12.4035H5.743C5.94191 12.4035 6.13268 12.3245 6.27333 12.1838C6.41398 12.0432 6.493 11.8524 6.493 11.6535C6.493 11.4546 6.41398 11.2638 6.27333 11.1232C6.13268 10.9825 5.94191 10.9035 5.743 10.9035H0.75C0.551088 10.9035 0.360322 10.9825 0.21967 11.1232C0.0790178 11.2638 0 11.4546 0 11.6535V16.6455C0 16.8444 0.0790178 17.0352 0.21967 17.1758C0.360322 17.3165 0.551088 17.3955 0.75 17.3955C0.948912 17.3955 1.13968 17.3165 1.28033 17.1758C1.42098 17.0352 1.5 16.8444 1.5 16.6455V13.4655L3.4 15.3655C4.5171 16.483 5.90873 17.2868 7.43498 17.6959C8.96122 18.105 10.5683 18.1051 12.0946 17.6961C13.6209 17.2872 15.0126 16.4836 16.1298 15.3662C17.247 14.2487 18.0503 12.8569 18.459 11.3305C18.5103 11.1385 18.4833 10.934 18.384 10.7618C18.2846 10.5897 18.121 10.4641 17.929 10.4125Z" fill="#503F15"/>
</svg>

