<svg width="31" height="27" viewBox="0 0 31 27" fill="none" xmlns="http://www.w3.org/2000/svg">
<path d="M21.3896 0.567077C25.4691 4.89938 29.0975 9.94939 29.9934 16.0629C30.4573 19.2077 30.5526 28.1855 25.3293 26.6979C21.2054 25.5235 18.5937 20.1734 21.4278 16.5001C22.4699 15.1495 24.3571 14.1904 26.0029 14.8298C24.8274 10.2626 21.9234 6.5501 18.7844 3.2291C17.1386 1.49356 19.7312 -1.17498 21.3896 0.567077Z" fill="#503F15" fill-opacity="0.39"/>
<path d="M7.62657 16.6305C7.5948 16.3891 7.56303 16.1673 7.53126 15.978C6.92508 11.9288 5.31209 8.10854 2.8481 4.8863C1.41202 2.99418 3.99189 0.319107 5.44703 2.22428C8.02824 5.51334 9.85283 9.3584 10.7847 13.4726C11.49 16.7349 12.3351 22.0263 10.7084 25.1255C7.93794 30.4104 -3.20124 23.4095 1.22139 17.8441C1.96374 16.8781 3.02293 16.2223 4.20145 15.999C5.37996 15.7757 6.59734 16.0002 7.62657 16.6305Z" fill="#503F15" fill-opacity="0.39"/>
</svg>
