<svg width="24" height="24" viewBox="0 0 24 24" fill="none" xmlns="http://www.w3.org/2000/svg">
<path d="M6.34585 15.024L6.34585 15.024C6.34464 15.0252 6.34343 15.0264 6.34222 15.0276C6.33243 15.0374 6.32269 15.0471 6.31302 15.0568C6.15055 15.2189 6.00672 15.3624 5.90536 15.5414C5.80399 15.7205 5.75492 15.9176 5.69949 16.1404C5.69578 16.1553 5.69204 16.1703 5.68826 16.1854L4.71704 20.0703C4.71483 20.0791 4.7126 20.088 4.71036 20.097C4.67112 20.2537 4.62921 20.421 4.61546 20.5615C4.60032 20.7163 4.60385 20.9773 4.81326 21.1867L5.16608 20.8339L4.81326 21.1867C5.02268 21.3961 5.28373 21.3997 5.43846 21.3845C5.579 21.3708 5.74635 21.3289 5.90304 21.2896C5.91197 21.2874 5.92087 21.2852 5.92972 21.283L9.81461 20.3117C9.82973 20.308 9.84474 20.3042 9.85963 20.3005C10.0824 20.2451 10.2795 20.196 10.4586 20.0946C10.6376 19.9933 10.7811 19.8495 10.9433 19.687C10.9541 19.6761 10.965 19.6652 10.976 19.6541L20.9393 9.69084L20.9626 9.66758C21.276 9.35418 21.5461 9.08414 21.7333 8.8388C21.9339 8.57589 22.0858 8.28346 22.0858 7.92308C22.0858 7.56269 21.9339 7.27027 21.7333 7.00735C21.5461 6.76202 21.2761 6.49199 20.9626 6.17859L20.9393 6.15531L19.8447 5.06066L19.8214 5.03738C19.508 4.72395 19.238 4.45388 18.9927 4.2667C18.7297 4.0661 18.4373 3.91421 18.0769 3.91421C17.7165 3.91421 17.4241 4.0661 17.1612 4.2667C16.9159 4.45388 16.6458 4.72395 16.3324 5.03738L16.3092 5.06066L6.34585 15.024Z" stroke="#503F15"/>
<path d="M15 6.33333L18.5 4L22 7.5L19.6667 11L15 6.33333Z" fill="#503F15"/>
<path d="M7 2L7 10" stroke="#503F15" stroke-linecap="round"/>
<path d="M11 6L3 6" stroke="#503F15" stroke-linecap="round"/>
</svg>
